<?xml version="1.0" encoding="UTF-8" standalone="no"?>
<svg width="100%" height="100%" class="app-icon" viewBox="0 0 1024 1024" version="1.1" xmlns="http://www.w3.org/2000/svg" xmlns:xlink="http://www.w3.org/1999/xlink" xmlns:sketch="http://www.bohemiancoding.com/sketch/ns">
    <!-- Generator: Sketch 3.2.2 (9983) - http://www.bohemiancoding.com/sketch -->
    <title>Icon</title>
    <desc>Created with Sketch.</desc>
    <defs></defs>
    <g id="Page-1" stroke="none" stroke-width="1" fill="none" fill-rule="evenodd" sketch:type="MSPage">
        <g id="Icon" sketch:type="MSArtboardGroup">
            <g id="Icon-+-Tower" sketch:type="MSLayerGroup">
                <path d="M716.8,2.09738255e-08 C605.616667,1.70083118e-05 418.133333,1.96293333e-05 307.2,2.09738255e-08 C196.266667,-1.95873854e-05 135.873813,1.81887822e-08 68.2666667,68.3333329 C0.659526205,136.666671 -4.89376225e-06,196.458332 0,307.499998 C3.9145804e-08,418.541664 8.43611003e-06,606.458329 0,717.499995 C-4.87617592e-06,828.541661 0.659525758,888.333322 68.2666667,956.66666 C135.873813,1024.99999 196.266667,1024.99999 307.2,1024.99999 C418.133333,1024.99999 605.866667,1025.00001 716.8,1024.99999 C827.733333,1024.99999 895.95,1024.99999 955.733333,956.66666 C1015.51667,888.333327 1024,828.541661 1024,717.499995 C1024,606.458329 1024,418.541664 1024,307.499998 C1024,196.458332 1023.48333,136.666668 955.733333,68.3333329 C887.983333,2.09738255e-08 827.983333,-6.31359627e-08 716.8,2.09738255e-08 Z" id="Icon" fill="#EC5D57" sketch:type="MSShapeGroup"></path>
                <path d="M353.498315,202.550336 L258.815781,218.813073 L225.720935,268.865723 L399.713968,617.658754 L409.608333,638.964905 L408.983186,660.419888 L410.308809,950 L454.214475,950 L454.214475,950 L526.729253,950 L587.947169,949.885193 L587.947169,949.693564 L587.947169,949.693564 L615.666896,949.693546 L615.024374,636.494038 L620.136113,617.518778 L797.554569,273.076411 L761.252108,220.792129 L690.047753,200.882909 L690.023534,200.835805 L673.398696,199.943869 L703.0067,129.528908 L678.58074,89.4843239 L633.239017,78.6621034 L523.743219,74.1863929 L408.884058,77.8062041 L342.697587,89.4944729 L314.494278,130.72649 L353.498315,202.550336 Z" id="Tower" fill="#FFFFFF" sketch:type="MSShapeGroup"></path>
            </g>
        </g>
    </g>
</svg>