<?xml version="1.0" encoding="UTF-8" standalone="no"?>
<svg width="100%" height="100%" class="app-icon" viewBox="0 0 120 120" version="1.1" xmlns="http://www.w3.org/2000/svg" xmlns:xlink="http://www.w3.org/1999/xlink" xmlns:sketch="http://www.bohemiancoding.com/sketch/ns">
    <!-- Generator: Sketch 3.2.2 (9983) - http://www.bohemiancoding.com/sketch -->
    <title>Git2Go App Icon</title>
    <desc>The Icon for the Git2Go iOS App</desc>
    <defs>
        <path id="path-1" d="M40.7999992,0 C27.5,0 23.25,-9.33655997e-09 17.25,2 C10.1800003,4.5 4.5,10.1800003 2,17.25 C0,23.25 0,27.5 0,40.7999992 C0,40.7999992 7.42793205e-08,79.1999969 0,79.1999969 C7.42793205e-08,92.5 5.95996354e-08,96.75 2,102.75 C4.50463867,109.82 10.1800003,115.5 17.25,118 C23.25,120 27.5,120 40.7999992,120 L79.1999969,120 C92.5,120 96.75,120 102.75,118 C109.82,115.5 115.5,109.82 118,102.75 C120,96.75 120,92.5 120,79.1999969 L120,40.7999992 C120,27.5 120,23.25 118,17.25 C115.5,10.25 109.739998,4.5 102.739998,2 C96.7399979,5.60291369e-09 92.5,2.11065014e-08 79.1999969,0 C86.1999969,2.11065014e-08 40.7999992,0 40.7999992,0 Z"></path>
        <linearGradient x1="50%" y1="0%" x2="50%" y2="100%" id="linearGradient-3">
            <stop stop-color="#363A4E" offset="0%"></stop>
            <stop stop-color="#1E212D" offset="100%"></stop>
        </linearGradient>
    </defs>
    <g id="Page-1" stroke="none" stroke-width="1" fill="none" fill-rule="evenodd" sketch:type="MSPage">
        <g id="App-Icon-2---120" sketch:type="MSArtboardGroup">
            <mask id="mask-2" sketch:name="App icon" fill="white">
                <use xlink:href="#path-1"></use>
            </mask>
            <use id="App-icon" sketch:type="MSShapeGroup" xlink:href="#path-1"></use>
            <g id="Rectangle-17" sketch:type="MSLayerGroup" mask="url(#mask-2)" fill="url(#linearGradient-3)">
                <rect id="Rectangle-16" sketch:type="MSShapeGroup" x="0" y="0" width="120" height="120"></rect>
            </g>
            <g id="git" sketch:type="MSLayerGroup" mask="url(#mask-2)" fill="#EDEFF0">
                <g transform="translate(34.000000, 43.000000)" id="fork3" sketch:type="MSShapeGroup">
                    <path d="M56,45 C48.1,45 44.2,41.2 39.3,36.4 C37.1,34.3 34.8,32 32.1,30.1 C35.1,28.1 37.5,25.7 39.7,23.5 C44.5,18.8 48.3,15 56,15 L56,5 C44.2,5 38.1,11 32.7,16.4 C27.8,21.2 23.9,25 16,25 L14.7,25 C13,22 9.7,20 6,20 C0.5,20 -4,24.5 -4,30 C-4,35.5 0.5,40 6,40 C9.7,40 12.9,38 14.7,35 L16,35 C23.7,35 27.5,38.8 32.3,43.5 C37.5,48.6 44,55 56,55 L56,45 Z M6,36 C2.7,36 2.84217094e-14,33.3 2.84217094e-14,30 C2.84217094e-14,26.7 2.7,24 6,24 C9.3,24 12,26.7 12,30 C12,33.3 9.3,36 6,36 L6,36 Z" transform="translate(26.000000, 30.000000) rotate(-90.000000) translate(-26.000000, -30.000000) "></path>
                </g>
            </g>
            <rect id="Rectangle-33" fill="#ED5A5A" sketch:type="MSShapeGroup" mask="url(#mask-2)" x="30" y="26" width="20" height="5"></rect>
            <g id="Rectangle-34-+-Rectangle-35" sketch:type="MSLayerGroup" mask="url(#mask-2)" fill="#70D6E5">
                <g transform="translate(70.000000, 18.000000)" sketch:type="MSShapeGroup">
                    <rect id="Rectangle-34" x="0" y="8" width="20" height="5"></rect>
                    <rect id="Rectangle-35" transform="translate(10.000000, 10.500000) rotate(-90.000000) translate(-10.000000, -10.500000) " x="0" y="8" width="20" height="5"></rect>
                </g>
            </g>
        </g>
    </g>
</svg>